<svg width="14" height="14" viewBox="0 0 14 14" fill="none" xmlns="http://www.w3.org/2000/svg">
<path d="M6.85386 12.1371C7.56728 12.8312 8.52081 13.2373 9.52544 13.2749C10.5301 13.3124 11.5124 12.9788 12.2778 12.34C12.2528 12.1423 12.1608 11.9585 12.0164 11.8182L10.2907 10.1078C10.1161 9.93839 9.88046 9.84338 9.63485 9.84338C9.38924 9.84338 9.15355 9.93839 8.97905 10.1078C8.89331 10.193 8.79124 10.2607 8.6787 10.3072C8.56616 10.3536 8.44536 10.3778 8.32325 10.3783C8.2018 10.3782 8.08161 10.3542 7.96981 10.3077C7.85801 10.2612 7.75686 10.1932 7.67238 10.1078L3.72771 6.24242C3.64109 6.1588 3.57231 6.05914 3.52536 5.94923C3.47841 5.83933 3.45423 5.72137 3.45423 5.60222C3.45423 5.48308 3.47841 5.36512 3.52536 5.25521C3.57231 5.14531 3.64109 5.04564 3.72771 4.96203C3.83269 4.85847 3.90905 4.73044 3.9496 4.58999C3.95435 4.51273 3.96927 4.43641 3.99398 4.3629C3.99398 4.3629 3.99398 4.33391 3.99398 4.31941C3.99255 4.07875 3.89523 3.84816 3.72278 3.6768L2.00192 1.99055C1.91616 1.90553 1.81404 1.83803 1.70147 1.79196C1.5889 1.74589 1.46811 1.72217 1.34612 1.72217C1.22412 1.72217 1.10334 1.74589 0.990769 1.79196C0.878197 1.83803 0.776074 1.90553 0.690317 1.99055C0.518133 2.15915 0.362917 2.3436 0.226818 2.54136C0.0801876 2.94644 0.0035298 3.37264 0 3.80243C0.00140423 4.31897 0.106636 4.83018 0.309685 5.30687C0.512735 5.78356 0.809625 6.21639 1.1834 6.58064L6.85386 12.1371Z" fill="#495057"/>
<path d="M6.72222 6.77778C6.72222 7.05392 6.94608 7.27778 7.22222 7.27778L11.7222 7.27778C11.9984 7.27778 12.2222 7.05392 12.2222 6.77778C12.2222 6.50164 11.9984 6.27778 11.7222 6.27778L7.72222 6.27778V2.27778C7.72222 2.00164 7.49836 1.77778 7.22222 1.77778C6.94608 1.77778 6.72222 2.00164 6.72222 2.27778L6.72222 6.77778ZM12.6464 0.646447L6.86867 6.42422L7.57578 7.13133L13.3536 1.35355L12.6464 0.646447Z" fill="#4F92FD"/>
</svg>
