<svg width="133" height="43" viewBox="0 0 133 43" fill="none" xmlns="http://www.w3.org/2000/svg">
<path d="M16.8935 19.8217C10.8603 13.9576 3.26595 12.0029 0.2229 11.7586V42.5452H132V14.691C122.474 13.958 116.917 27.8851 105.406 30.0841C93.8958 32.2831 93.4988 12.1251 80.7974 4.06203C68.096 -4.00105 56.9823 13.5911 48.2501 20.9212C39.5179 28.2513 24.435 27.1518 16.8935 19.8217Z" fill="url(#paint0_linear_85_1412)"/>
<path d="M0.2229 11.7586C3.26595 12.0029 10.8603 13.9576 16.8935 19.8217C24.435 27.1518 39.5179 28.2513 48.2501 20.9212C56.9823 13.5911 68.096 -4.00105 80.7974 4.06203C93.4988 12.1251 93.8958 32.2831 105.406 30.0841C116.917 27.8851 122.474 13.958 132 14.691" stroke="#FAB323" stroke-width="2.56551"/>
<circle cx="50.7202" cy="17.7202" r="4.62069" fill="#FAB323" stroke="white" stroke-width="2.19902"/>
<defs>
<linearGradient id="paint0_linear_85_1412" x1="66.1114" y1="1.99219" x2="66.1114" y2="42.5452" gradientUnits="userSpaceOnUse">
<stop stop-color="#FFB545" stop-opacity="0.69"/>
<stop offset="0.776042" stop-color="#ECC334" stop-opacity="0"/>
</linearGradient>
</defs>
</svg>
