<svg width="14" height="14" viewBox="0 0 14 14" fill="none" xmlns="http://www.w3.org/2000/svg">
<path d="M6.85386 12.1372C7.56728 12.8313 8.52081 13.2374 9.52544 13.275C10.5301 13.3126 11.5124 12.9789 12.2778 12.3401C12.2528 12.1424 12.1608 11.9586 12.0164 11.8183L10.2907 10.1079C10.1161 9.93851 9.88046 9.8435 9.63485 9.8435C9.38924 9.8435 9.15356 9.93851 8.97905 10.1079C8.89331 10.1931 8.79124 10.2608 8.6787 10.3073C8.56616 10.3537 8.44536 10.3779 8.32325 10.3784C8.2018 10.3783 8.08161 10.3543 7.96981 10.3078C7.85801 10.2614 7.75686 10.1934 7.67238 10.1079L3.72771 6.24254C3.64109 6.15892 3.57231 6.05926 3.52536 5.94936C3.47841 5.83945 3.45423 5.72149 3.45423 5.60234C3.45423 5.4832 3.47841 5.36524 3.52536 5.25533C3.57231 5.14543 3.64109 5.04577 3.72771 4.96215C3.83269 4.8586 3.90905 4.73056 3.9496 4.59011C3.95435 4.51286 3.96927 4.43653 3.99398 4.36302C3.99398 4.36302 3.99398 4.33403 3.99398 4.31954C3.99255 4.07888 3.89523 3.84828 3.72278 3.67692L2.00192 1.99067C1.91616 1.90565 1.81404 1.83815 1.70147 1.79208C1.5889 1.74601 1.46811 1.72229 1.34612 1.72229C1.22412 1.72229 1.10334 1.74601 0.990769 1.79208C0.878197 1.83815 0.776074 1.90565 0.690317 1.99067C0.518133 2.15927 0.362917 2.34373 0.226818 2.54148C0.0801876 2.94656 0.0035298 3.37276 0 3.80255C0.00140423 4.31909 0.106636 4.83031 0.309685 5.307C0.512735 5.78369 0.809625 6.21651 1.1834 6.58076L6.85386 12.1372Z" fill="#495057"/>
<path d="M13.5 1.00005C13.5 0.723911 13.2761 0.500053 13 0.500053L8.49999 0.500054C8.22385 0.500054 7.99999 0.723912 7.99999 1.00005C7.99999 1.2762 8.22385 1.50005 8.49999 1.50005L12.5 1.50005L12.5 5.50005C12.5 5.7762 12.7239 6.00005 13 6.00005C13.2761 6.00005 13.5 5.7762 13.5 5.50005L13.5 1.00005ZM7.57577 7.13139L13.3535 1.35361L12.6464 0.6465L6.86866 6.42428L7.57577 7.13139Z" fill="#FA8072"/>
</svg>
